<?xml version="1.0" encoding="UTF-8" standalone="no"?>
<svg
   width="371.48"
   height="371.48"
   viewBox="0 0 98.29 98.29"
   version="1.1"
   id="svg7"
   sodipodi:docname="RangerCaptur.svg"
   inkscape:version="1.3.2 (091e20e, 2023-11-25, custom)"
   xmlns:inkscape="http://www.inkscape.org/namespaces/inkscape"
   xmlns:sodipodi="http://sodipodi.sourceforge.net/DTD/sodipodi-0.dtd"
   xmlns="http://www.w3.org/2000/svg"
   xmlns:svg="http://www.w3.org/2000/svg">
  <defs
     id="defs7">
    <inkscape:path-effect
       effect="powermask"
       id="path-effect20"
       is_visible="true"
       lpeversion="1"
       uri="#mask-powermask-path-effect20"
       invert="false"
       hide_mask="false"
       background="true"
       background_color="#ffffffff" />
    <inkscape:path-effect
       effect="powermask"
       id="path-effect19"
       is_visible="true"
       lpeversion="1"
       uri="#mask-powermask-path-effect19"
       invert="false"
       hide_mask="false"
       background="true"
       background_color="#ffffffff" />
    <inkscape:path-effect
       effect="powermask"
       id="path-effect18"
       is_visible="true"
       lpeversion="1"
       uri="#mask-powermask-path-effect18"
       invert="false"
       hide_mask="false"
       background="true"
       background_color="#ffffffff" />
    <inkscape:path-effect
       effect="powermask"
       id="path-effect17"
       is_visible="true"
       lpeversion="1"
       uri="#mask-powermask-path-effect17"
       invert="false"
       hide_mask="false"
       background="true"
       background_color="#ffffffff" />
    <inkscape:path-effect
       effect="powermask"
       id="path-effect16"
       is_visible="true"
       lpeversion="1"
       uri="#mask-powermask-path-effect16"
       invert="false"
       hide_mask="false"
       background="true"
       background_color="#ffffffff" />
    <inkscape:path-effect
       effect="powermask"
       id="path-effect15"
       is_visible="true"
       lpeversion="1"
       uri="#mask-powermask-path-effect15"
       invert="false"
       hide_mask="false"
       background="true"
       background_color="#ffffffff" />
    <inkscape:path-effect
       effect="powermask"
       id="path-effect45"
       is_visible="true"
       lpeversion="1"
       uri="#mask-powermask-path-effect45"
       invert="false"
       hide_mask="false"
       background="true"
       background_color="#ffffffff" />
    <inkscape:path-effect
       effect="powermask"
       id="path-effect44"
       is_visible="true"
       lpeversion="1"
       uri="#mask-powermask-path-effect44"
       invert="false"
       hide_mask="false"
       background="true"
       background_color="#ffffffff" />
    <inkscape:path-effect
       effect="powermask"
       id="path-effect43"
       is_visible="true"
       lpeversion="1"
       uri="#mask-powermask-path-effect43"
       invert="false"
       hide_mask="false"
       background="true"
       background_color="#ffffffff" />
    <filter
       id="mask-powermask-path-effect29_inverse"
       inkscape:label="filtermask-powermask-path-effect29"
       style="color-interpolation-filters:sRGB"
       height="100"
       width="100"
       x="-50"
       y="-50">
      <feColorMatrix
         id="mask-powermask-path-effect29_primitive1"
         values="1"
         type="saturate"
         result="fbSourceGraphic" />
      <feColorMatrix
         id="mask-powermask-path-effect29_primitive2"
         values="-1 0 0 0 1 0 -1 0 0 1 0 0 -1 0 1 0 0 0 1 0 "
         in="fbSourceGraphic" />
    </filter>
    <filter
       id="mask-powermask-path-effect30_inverse"
       inkscape:label="filtermask-powermask-path-effect30"
       style="color-interpolation-filters:sRGB"
       height="100"
       width="100"
       x="-50"
       y="-50">
      <feColorMatrix
         id="mask-powermask-path-effect30_primitive1"
         values="1"
         type="saturate"
         result="fbSourceGraphic" />
      <feColorMatrix
         id="mask-powermask-path-effect30_primitive2"
         values="-1 0 0 0 1 0 -1 0 0 1 0 0 -1 0 1 0 0 0 1 0 "
         in="fbSourceGraphic" />
    </filter>
    <filter
       id="mask-powermask-path-effect31_inverse"
       inkscape:label="filtermask-powermask-path-effect31"
       style="color-interpolation-filters:sRGB"
       height="100"
       width="100"
       x="-50"
       y="-50">
      <feColorMatrix
         id="mask-powermask-path-effect31_primitive1"
         values="1"
         type="saturate"
         result="fbSourceGraphic" />
      <feColorMatrix
         id="mask-powermask-path-effect31_primitive2"
         values="-1 0 0 0 1 0 -1 0 0 1 0 0 -1 0 1 0 0 0 1 0 "
         in="fbSourceGraphic" />
    </filter>
    <filter
       id="mask-powermask-path-effect32_inverse"
       inkscape:label="filtermask-powermask-path-effect32"
       style="color-interpolation-filters:sRGB"
       height="100"
       width="100"
       x="-50"
       y="-50">
      <feColorMatrix
         id="mask-powermask-path-effect32_primitive1"
         values="1"
         type="saturate"
         result="fbSourceGraphic" />
      <feColorMatrix
         id="mask-powermask-path-effect32_primitive2"
         values="-1 0 0 0 1 0 -1 0 0 1 0 0 -1 0 1 0 0 0 1 0 "
         in="fbSourceGraphic" />
    </filter>
    <filter
       id="mask-powermask-path-effect33_inverse"
       inkscape:label="filtermask-powermask-path-effect33"
       style="color-interpolation-filters:sRGB"
       height="100"
       width="100"
       x="-50"
       y="-50">
      <feColorMatrix
         id="mask-powermask-path-effect33_primitive1"
         values="1"
         type="saturate"
         result="fbSourceGraphic" />
      <feColorMatrix
         id="mask-powermask-path-effect33_primitive2"
         values="-1 0 0 0 1 0 -1 0 0 1 0 0 -1 0 1 0 0 0 1 0 "
         in="fbSourceGraphic" />
    </filter>
    <filter
       id="mask-powermask-path-effect37_inverse"
       inkscape:label="filtermask-powermask-path-effect37"
       style="color-interpolation-filters:sRGB"
       height="100"
       width="100"
       x="-50"
       y="-50">
      <feColorMatrix
         id="mask-powermask-path-effect37_primitive1"
         values="1"
         type="saturate"
         result="fbSourceGraphic" />
      <feColorMatrix
         id="mask-powermask-path-effect37_primitive2"
         values="-1 0 0 0 1 0 -1 0 0 1 0 0 -1 0 1 0 0 0 1 0 "
         in="fbSourceGraphic" />
    </filter>
    <filter
       id="mask-powermask-path-effect38_inverse"
       inkscape:label="filtermask-powermask-path-effect38"
       style="color-interpolation-filters:sRGB"
       height="100"
       width="100"
       x="-50"
       y="-50">
      <feColorMatrix
         id="mask-powermask-path-effect38_primitive1"
         values="1"
         type="saturate"
         result="fbSourceGraphic" />
      <feColorMatrix
         id="mask-powermask-path-effect38_primitive2"
         values="-1 0 0 0 1 0 -1 0 0 1 0 0 -1 0 1 0 0 0 1 0 "
         in="fbSourceGraphic" />
    </filter>
    <filter
       id="mask-powermask-path-effect39_inverse"
       inkscape:label="filtermask-powermask-path-effect39"
       style="color-interpolation-filters:sRGB"
       height="100"
       width="100"
       x="-50"
       y="-50">
      <feColorMatrix
         id="mask-powermask-path-effect39_primitive1"
         values="1"
         type="saturate"
         result="fbSourceGraphic" />
      <feColorMatrix
         id="mask-powermask-path-effect39_primitive2"
         values="-1 0 0 0 1 0 -1 0 0 1 0 0 -1 0 1 0 0 0 1 0 "
         in="fbSourceGraphic" />
    </filter>
    <filter
       id="mask-powermask-path-effect40_inverse"
       inkscape:label="filtermask-powermask-path-effect40"
       style="color-interpolation-filters:sRGB"
       height="100"
       width="100"
       x="-50"
       y="-50">
      <feColorMatrix
         id="mask-powermask-path-effect40_primitive1"
         values="1"
         type="saturate"
         result="fbSourceGraphic" />
      <feColorMatrix
         id="mask-powermask-path-effect40_primitive2"
         values="-1 0 0 0 1 0 -1 0 0 1 0 0 -1 0 1 0 0 0 1 0 "
         in="fbSourceGraphic" />
    </filter>
    <filter
       id="mask-powermask-path-effect41_inverse"
       inkscape:label="filtermask-powermask-path-effect41"
       style="color-interpolation-filters:sRGB"
       height="100"
       width="100"
       x="-50"
       y="-50">
      <feColorMatrix
         id="mask-powermask-path-effect41_primitive1"
         values="1"
         type="saturate"
         result="fbSourceGraphic" />
      <feColorMatrix
         id="mask-powermask-path-effect41_primitive2"
         values="-1 0 0 0 1 0 -1 0 0 1 0 0 -1 0 1 0 0 0 1 0 "
         in="fbSourceGraphic" />
    </filter>
    <mask
       maskUnits="userSpaceOnUse"
       id="mask-powermask-path-effect43">
      <path
         style="fill:#800000;fill-opacity:1;stroke:none;stroke-width:1.01413;stroke-dasharray:none;stroke-opacity:1;paint-order:fill markers stroke"
         d="M 46.368028,75.228451 C 40.3292,74.491239 35.216852,72.071577 30.943008,67.927823 27.780781,64.861849 25.627316,61.47494 24.278737,57.446439 c -0.966018,-2.885709 -1.329675,-5.161373 -1.329675,-8.32075 0,-3.159378 0.363657,-5.435042 1.329675,-8.320751 1.348579,-4.0285 3.502044,-7.415412 6.664271,-10.481384 5.023765,-4.870847 11.202842,-7.374492 18.20049,-7.374492 6.997651,0 13.176726,2.503645 18.200494,7.374492 3.162227,3.065972 5.31569,6.452884 6.664269,10.481384 0.966019,2.885709 1.329675,5.161373 1.329675,8.320751 0,3.156837 -0.363677,5.435245 -1.326656,8.311405 -3.015257,9.005756 -10.983102,15.890943 -20.256132,17.50375 -2.187421,0.380452 -5.553186,0.51149 -7.38712,0.287607 z"
         id="path41" />
    </mask>
    <mask
       maskUnits="userSpaceOnUse"
       id="mask-powermask-path-effect44">
      <path
         style="fill:#800000;fill-opacity:1;stroke:none;stroke-width:1.01413;stroke-dasharray:none;stroke-opacity:1;paint-order:fill markers stroke"
         d="M 46.368028,75.228451 C 40.3292,74.491239 35.216852,72.071577 30.943008,67.927823 27.780781,64.861849 25.627316,61.47494 24.278737,57.446439 c -0.966018,-2.885709 -1.329675,-5.161373 -1.329675,-8.32075 0,-3.159378 0.363657,-5.435042 1.329675,-8.320751 1.348579,-4.0285 3.502044,-7.415412 6.664271,-10.481384 5.023765,-4.870847 11.202842,-7.374492 18.20049,-7.374492 6.997651,0 13.176726,2.503645 18.200494,7.374492 3.162227,3.065972 5.31569,6.452884 6.664269,10.481384 0.966019,2.885709 1.329675,5.161373 1.329675,8.320751 0,3.156837 -0.363677,5.435245 -1.326656,8.311405 -3.015257,9.005756 -10.983102,15.890943 -20.256132,17.50375 -2.187421,0.380452 -5.553186,0.51149 -7.38712,0.287607 z"
         id="path42" />
    </mask>
    <mask
       maskUnits="userSpaceOnUse"
       id="mask-powermask-path-effect45">
      <path
         style="fill:#800000;fill-opacity:1;stroke:none;stroke-width:1.01413;stroke-dasharray:none;stroke-opacity:1;paint-order:fill markers stroke"
         d="M 46.368028,75.228451 C 40.3292,74.491239 35.216852,72.071577 30.943008,67.927823 27.780781,64.861849 25.627316,61.47494 24.278737,57.446439 c -0.966018,-2.885709 -1.329675,-5.161373 -1.329675,-8.32075 0,-3.159378 0.363657,-5.435042 1.329675,-8.320751 1.348579,-4.0285 3.502044,-7.415412 6.664271,-10.481384 5.023765,-4.870847 11.202842,-7.374492 18.20049,-7.374492 6.997651,0 13.176726,2.503645 18.200494,7.374492 3.162227,3.065972 5.31569,6.452884 6.664269,10.481384 0.966019,2.885709 1.329675,5.161373 1.329675,8.320751 0,3.156837 -0.363677,5.435245 -1.326656,8.311405 -3.015257,9.005756 -10.983102,15.890943 -20.256132,17.50375 -2.187421,0.380452 -5.553186,0.51149 -7.38712,0.287607 z"
         id="path43" />
    </mask>
    <filter
       id="mask-powermask-path-effect11_inverse"
       inkscape:label="filtermask-powermask-path-effect11"
       style="color-interpolation-filters:sRGB"
       height="100"
       width="100"
       x="-50"
       y="-50">
      <feColorMatrix
         id="mask-powermask-path-effect11_primitive1"
         values="1"
         type="saturate"
         result="fbSourceGraphic" />
      <feColorMatrix
         id="mask-powermask-path-effect11_primitive2"
         values="-1 0 0 0 1 0 -1 0 0 1 0 0 -1 0 1 0 0 0 1 0 "
         in="fbSourceGraphic" />
    </filter>
    <filter
       id="mask-powermask-path-effect12_inverse"
       inkscape:label="filtermask-powermask-path-effect12"
       style="color-interpolation-filters:sRGB"
       height="100"
       width="100"
       x="-50"
       y="-50">
      <feColorMatrix
         id="mask-powermask-path-effect12_primitive1"
         values="1"
         type="saturate"
         result="fbSourceGraphic" />
      <feColorMatrix
         id="mask-powermask-path-effect12_primitive2"
         values="-1 0 0 0 1 0 -1 0 0 1 0 0 -1 0 1 0 0 0 1 0 "
         in="fbSourceGraphic" />
    </filter>
    <filter
       id="mask-powermask-path-effect13_inverse"
       inkscape:label="filtermask-powermask-path-effect13"
       style="color-interpolation-filters:sRGB"
       height="100"
       width="100"
       x="-50"
       y="-50">
      <feColorMatrix
         id="mask-powermask-path-effect13_primitive1"
         values="1"
         type="saturate"
         result="fbSourceGraphic" />
      <feColorMatrix
         id="mask-powermask-path-effect13_primitive2"
         values="-1 0 0 0 1 0 -1 0 0 1 0 0 -1 0 1 0 0 0 1 0 "
         in="fbSourceGraphic" />
    </filter>
    <mask
       maskUnits="userSpaceOnUse"
       id="mask-powermask-path-effect15">
      <path
         id="mask-powermask-path-effect15_box"
         style="fill:#ffffff;fill-opacity:1"
         d="m 38.919327,-1.0000414 h 20.44835 V 50.265257 h -20.44835 z" />
      <circle
         style="fill:#000000;fill-opacity:1;stroke:none;stroke-width:1.40233;stroke-opacity:1;paint-order:fill markers stroke"
         id="circle13"
         cx="49.143501"
         cy="49.143501"
         r="26.459028"
         d="M 75.60253,49.143501 A 26.459028,26.459028 0 0 1 49.143501,75.60253 26.459028,26.459028 0 0 1 22.684473,49.143501 26.459028,26.459028 0 0 1 49.143501,22.684473 26.459028,26.459028 0 0 1 75.60253,49.143501 Z" />
    </mask>
    <mask
       maskUnits="userSpaceOnUse"
       id="mask-powermask-path-effect16">
      <path
         id="mask-powermask-path-effect16_box"
         style="fill:#ffffff;fill-opacity:1"
         d="M 47.6928,47.484622 H 96.563013 V 82.269487 H 47.6928 Z" />
      <circle
         style="fill:#000000;fill-opacity:1;stroke:none;stroke-width:1.40233;stroke-opacity:1;paint-order:fill markers stroke"
         id="circle14"
         cx="49.143501"
         cy="49.143501"
         r="26.459028"
         d="M 75.60253,49.143501 A 26.459028,26.459028 0 0 1 49.143501,75.60253 26.459028,26.459028 0 0 1 22.684473,49.143501 26.459028,26.459028 0 0 1 49.143501,22.684473 26.459028,26.459028 0 0 1 75.60253,49.143501 Z" />
    </mask>
    <mask
       maskUnits="userSpaceOnUse"
       id="mask-powermask-path-effect17">
      <path
         id="mask-powermask-path-effect17_box"
         style="fill:#ffffff;fill-opacity:1"
         d="M 1.7239894,47.484622 H 50.594202 V 82.269486 H 1.7239894 Z" />
      <circle
         style="fill:#000000;fill-opacity:1;stroke:none;stroke-width:1.40233;stroke-opacity:1;paint-order:fill markers stroke"
         id="circle15"
         cx="49.143501"
         cy="49.143501"
         r="26.459028"
         d="M 75.60253,49.143501 A 26.459028,26.459028 0 0 1 49.143501,75.60253 26.459028,26.459028 0 0 1 22.684473,49.143501 26.459028,26.459028 0 0 1 49.143501,22.684473 26.459028,26.459028 0 0 1 75.60253,49.143501 Z" />
    </mask>
    <filter
       id="mask-powermask-path-effect15_inverse"
       inkscape:label="filtermask-powermask-path-effect15"
       style="color-interpolation-filters:sRGB"
       height="100"
       width="100"
       x="-50"
       y="-50">
      <feColorMatrix
         id="mask-powermask-path-effect15_primitive1"
         values="1"
         type="saturate"
         result="fbSourceGraphic" />
      <feColorMatrix
         id="mask-powermask-path-effect15_primitive2"
         values="-1 0 0 0 1 0 -1 0 0 1 0 0 -1 0 1 0 0 0 1 0 "
         in="fbSourceGraphic" />
    </filter>
    <filter
       id="mask-powermask-path-effect16_inverse"
       inkscape:label="filtermask-powermask-path-effect16"
       style="color-interpolation-filters:sRGB"
       height="100"
       width="100"
       x="-50"
       y="-50">
      <feColorMatrix
         id="mask-powermask-path-effect16_primitive1"
         values="1"
         type="saturate"
         result="fbSourceGraphic" />
      <feColorMatrix
         id="mask-powermask-path-effect16_primitive2"
         values="-1 0 0 0 1 0 -1 0 0 1 0 0 -1 0 1 0 0 0 1 0 "
         in="fbSourceGraphic" />
    </filter>
    <filter
       id="mask-powermask-path-effect17_inverse"
       inkscape:label="filtermask-powermask-path-effect17"
       style="color-interpolation-filters:sRGB"
       height="100"
       width="100"
       x="-50"
       y="-50">
      <feColorMatrix
         id="mask-powermask-path-effect17_primitive1"
         values="1"
         type="saturate"
         result="fbSourceGraphic" />
      <feColorMatrix
         id="mask-powermask-path-effect17_primitive2"
         values="-1 0 0 0 1 0 -1 0 0 1 0 0 -1 0 1 0 0 0 1 0 "
         in="fbSourceGraphic" />
    </filter>
    <mask
       maskUnits="userSpaceOnUse"
       id="mask-powermask-path-effect18">
      <path
         id="mask-powermask-path-effect18_box"
         style="fill:#ffffff;fill-opacity:1"
         d="m 22.964502,-0.99961462 h 52.358 V 51.545831 h -52.358 z" />
      <circle
         style="fill:#000000;fill-opacity:1;stroke:none;stroke-width:1.40233;stroke-opacity:1;paint-order:fill markers stroke"
         id="circle11"
         cx="49.143501"
         cy="49.143501"
         r="37.042641"
         d="M 86.186142,49.143501 A 37.042641,37.042641 0 0 1 49.143501,86.186142 37.042641,37.042641 0 0 1 12.100861,49.143501 37.042641,37.042641 0 0 1 49.143501,12.100861 37.042641,37.042641 0 0 1 86.186142,49.143501 Z" />
    </mask>
    <mask
       maskUnits="userSpaceOnUse"
       id="mask-powermask-path-effect19">
      <path
         id="mask-powermask-path-effect19_box"
         style="fill:#ffffff;fill-opacity:1"
         d="M 46.929048,47.442336 H 99.287045 V 93.053643 H 46.929048 Z" />
      <circle
         style="fill:#000000;fill-opacity:1;stroke:none;stroke-width:1.40233;stroke-opacity:1;paint-order:fill markers stroke"
         id="circle12"
         cx="49.143501"
         cy="49.143501"
         r="37.042641"
         d="M 86.186142,49.143501 A 37.042641,37.042641 0 0 1 49.143501,86.186142 37.042641,37.042641 0 0 1 12.100861,49.143501 37.042641,37.042641 0 0 1 49.143501,12.100861 37.042641,37.042641 0 0 1 86.186142,49.143501 Z" />
    </mask>
    <mask
       maskUnits="userSpaceOnUse"
       id="mask-powermask-path-effect20">
      <path
         id="mask-powermask-path-effect20_box"
         style="fill:#ffffff;fill-opacity:1"
         d="M -1.0000427,47.442336 H 51.357955 V 93.053641 H -1.0000427 Z" />
      <circle
         style="fill:#000000;fill-opacity:1;stroke:none;stroke-width:1.40233;stroke-opacity:1;paint-order:fill markers stroke"
         id="circle16"
         cx="49.143501"
         cy="49.143501"
         r="37.042641"
         d="M 86.186142,49.143501 A 37.042641,37.042641 0 0 1 49.143501,86.186142 37.042641,37.042641 0 0 1 12.100861,49.143501 37.042641,37.042641 0 0 1 49.143501,12.100861 37.042641,37.042641 0 0 1 86.186142,49.143501 Z" />
    </mask>
    <filter
       id="mask-powermask-path-effect18_inverse"
       inkscape:label="filtermask-powermask-path-effect18"
       style="color-interpolation-filters:sRGB"
       height="100"
       width="100"
       x="-50"
       y="-50">
      <feColorMatrix
         id="mask-powermask-path-effect18_primitive1"
         values="1"
         type="saturate"
         result="fbSourceGraphic" />
      <feColorMatrix
         id="mask-powermask-path-effect18_primitive2"
         values="-1 0 0 0 1 0 -1 0 0 1 0 0 -1 0 1 0 0 0 1 0 "
         in="fbSourceGraphic" />
    </filter>
    <filter
       id="mask-powermask-path-effect19_inverse"
       inkscape:label="filtermask-powermask-path-effect19"
       style="color-interpolation-filters:sRGB"
       height="100"
       width="100"
       x="-50"
       y="-50">
      <feColorMatrix
         id="mask-powermask-path-effect19_primitive1"
         values="1"
         type="saturate"
         result="fbSourceGraphic" />
      <feColorMatrix
         id="mask-powermask-path-effect19_primitive2"
         values="-1 0 0 0 1 0 -1 0 0 1 0 0 -1 0 1 0 0 0 1 0 "
         in="fbSourceGraphic" />
    </filter>
    <filter
       id="mask-powermask-path-effect20_inverse"
       inkscape:label="filtermask-powermask-path-effect20"
       style="color-interpolation-filters:sRGB"
       height="100"
       width="100"
       x="-50"
       y="-50">
      <feColorMatrix
         id="mask-powermask-path-effect20_primitive1"
         values="1"
         type="saturate"
         result="fbSourceGraphic" />
      <feColorMatrix
         id="mask-powermask-path-effect20_primitive2"
         values="-1 0 0 0 1 0 -1 0 0 1 0 0 -1 0 1 0 0 0 1 0 "
         in="fbSourceGraphic" />
    </filter>
  </defs>
  <sodipodi:namedview
     id="namedview7"
     pagecolor="#505050"
     bordercolor="#eeeeee"
     borderopacity="1"
     inkscape:showpageshadow="0"
     inkscape:pageopacity="0"
     inkscape:pagecheckerboard="0"
     inkscape:deskcolor="#505050"
     showguides="true"
     inkscape:zoom="2.8284271"
     inkscape:cx="185.79231"
     inkscape:cy="185.79231"
     inkscape:window-width="1920"
     inkscape:window-height="1017"
     inkscape:window-x="-8"
     inkscape:window-y="-8"
     inkscape:window-maximized="1"
     inkscape:current-layer="svg7">
    <sodipodi:guide
       position="5.7297409,43.05062"
       orientation="1,0"
       id="guide11"
       inkscape:locked="false" />
    <sodipodi:guide
       position="34.92695,86.297652"
       orientation="1,0"
       id="guide12"
       inkscape:locked="false" />
    <sodipodi:guide
       position="19.342261,46.289678"
       orientation="0,-1"
       id="guide13"
       inkscape:locked="false" />
  </sodipodi:namedview>
  <path
     fill="#f9af17"
     d="M52.402 2.937l.188.012-.188-.012M36.158 4.669l.112-.033-.112.033m.71-.2c.125-.034.25-.069.376-.102a43.77 43.77 0 0 0-.377.102m2.148-.534c.212-.047.424-.094.637-.139-.213.045-.425.092-.637.14m-1.21.286c.151-.038.303-.075.455-.111l-.455.11M59.11 3.9l.048.01-.048-.01m-3.328-.603l.144.02-.144-.02m-6.636-.476h-.003.003m4.99.27c.076.007.154.017.23.025l-.23-.026"
     id="path1" />
  <path
     fill="#644a3a"
     d="M39.652 3.796c.154-.032.309-.062.463-.092-.154.03-.309.06-.463.092m-3.494.873c-.238.07-.477.139-.714.212v.002a41.8 41.8 0 0 1 .714-.214m10.485-1.78c.106-.006.213-.01.319-.015l-.319.015m-4.801.507l.334-.053-.335.053m2.348-.31l.36-.038-.36.037m1.3-.12l.105-.01-.106.01m-2.374.247l.368-.046-.368.046"
     id="path2" />
  <path
     fill="#201e1d"
     d="M49.144 5.643c-23.987 0-43.501 19.514-43.501 43.5 0 23.987 19.514 43.501 43.5 43.501 23.987 0 43.502-19.514 43.502-43.5 0-23.987-19.515-43.501-43.501-43.501zm0 92.644C22.046 98.287 0 76.241 0 49.144 0 22.045 22.046 0 49.144 0s49.143 22.045 49.143 49.144c0 27.097-22.045 49.143-49.143 49.143"
     id="path3" />
  <path
     fill="#201e1d"
     d="M49.144 34.98c-7.81 0-14.165 6.353-14.165 14.163 0 7.81 6.354 14.165 14.165 14.165 7.81 0 14.164-6.354 14.164-14.165 0-7.81-6.354-14.164-14.164-14.164zm0 33.97c-10.922 0-19.808-8.885-19.808-19.807 0-10.921 8.886-19.807 19.808-19.807 10.921 0 19.807 8.886 19.807 19.807 0 10.922-8.886 19.808-19.807 19.808"
     id="path6" />
  <path
     style="fill:#5600d0;fill-opacity:1;stroke:none;stroke-width:1.00652;stroke-opacity:1;paint-order:fill markers stroke"
     d="m 46.643098,63.224814 c -0.912561,-0.1512 -2.915049,-0.847211 -3.970734,-1.38012 C 39.214891,60.099369 36.351273,56.57213 35.341726,52.815237 35.17332,52.188534 34.986574,50.86074 34.926736,49.864578 34.42533,41.517275 41.51719,34.425415 49.864492,34.926822 c 2.255102,0.135459 3.65889,0.502937 5.625081,1.472499 3.476516,1.71433 5.974925,4.639228 7.295548,8.540937 0.526535,1.555605 0.729151,5.126294 0.389967,6.872237 -1.068799,5.501597 -5.37779,9.959443 -10.881099,11.256988 -1.098756,0.259059 -4.466191,0.351624 -5.650891,0.155331 z"
     id="path5" />
  <circle
     style="fill:#800000;fill-opacity:0;stroke:#201e1d;stroke-width:1.39791;stroke-dasharray:none;stroke-opacity:1;paint-order:fill markers stroke"
     id="path14"
     cx="49.143501"
     cy="49.143501"
     r="38.989586" />
  <path
     style="fill:#e7eaee;fill-opacity:1;stroke:none;stroke-width:3.74767;stroke-dasharray:none;stroke-opacity:1;paint-order:fill markers stroke"
     d="M 166.52364,328.79816 C 133.95359,324.33064 103.57327,308.72115 80.966556,284.83871 44.288675,246.09106 32.037436,190.96004 48.860588,140.36069 61.14662,103.40773 87.494798,73.188345 122.24824,56.190551 171.40011,32.150534 229.68726,37.86714 273.20727,70.996101 c 49.69429,37.829039 69.49184,104.615659 48.43954,163.409789 -8.61321,24.05469 -25.55374,47.76546 -45.73044,64.00648 -20.12184,16.19687 -45.48088,26.9778 -71.42196,30.36374 -10.01681,1.30744 -28.52142,1.31819 -37.97077,0.022 z m 39.24443,-70.62958 c 20.75759,-6.16611 37.04499,-19.41475 46.59881,-37.90482 3.35461,-6.49238 6.20261,-14.79401 7.46656,-21.76428 1.14173,-6.29628 0.9649,-20.02971 -0.34675,-26.92989 -6.71353,-35.31773 -37.74979,-60.90738 -73.87116,-60.90738 -37.08283,0 -68.90832,27.5489 -74.28209,64.30033 -1.15226,7.88033 -0.49783,21.37388 1.38533,28.56412 6.4507,24.62983 23.4263,43.7576 46.68649,52.60536 9.20372,3.50094 15.5758,4.4392 28.33159,4.17169 10.14561,-0.21278 12.49724,-0.49124 18.03122,-2.13513 z"
     id="path15"
     transform="scale(0.26459028)" />
  <path
     style="fill:#c1dfe3;fill-opacity:1;stroke:none;stroke-width:3.74767;stroke-dasharray:none;stroke-opacity:1;paint-order:fill markers stroke"
     d="M 165.50815,348.51542 C 111.21347,341.56181 64.103551,308.23362 39.336918,259.25483 31.149222,243.06275 26.001984,226.78603 23.205266,208.24294 21.509894,197.00211 21.519483,174.11899 23.22423,162.98811 34.443211,89.735549 89.735549,34.443211 162.98811,23.22423 c 11.13088,-1.704747 34.014,-1.714336 45.25483,-0.01896 28.41532,4.285675 53.32795,14.657104 76.30405,31.766307 8.71333,6.48839 25.27834,23.019964 31.71302,31.649005 28.11211,37.698878 39.09699,83.528838 30.83083,128.629198 -12.18527,66.48314 -65.35792,119.65579 -131.84106,131.84106 -14.94773,2.73967 -34.99109,3.31371 -49.74163,1.42458 z m 41.67413,-14.04978 c 32.6559,-4.83326 61.64768,-19.36684 84.7821,-42.50126 39.9053,-39.90529 54.07553,-98.74769 36.73814,-152.55642 C 313.1969,91.284317 273.60254,53.636866 224.79754,40.612124 201.42843,34.375536 173.43256,34.029709 150.317,39.692083 88.617747,54.805897 43.589942,106.01906 36.372979,169.28833 c -1.090793,9.56271 -0.489627,32.88251 1.06802,41.42949 5.981739,32.82243 20.916077,60.95755 44.23971,83.34414 24.519631,23.53453 56.436351,38.18694 90.191211,41.40521 8.89099,0.84769 26.11736,0.35909 35.31036,-1.00153 z"
     id="path16"
     transform="scale(0.26459028)" />
  <path
     style="fill:#c62487;fill-opacity:1;stroke:#201e1d;stroke-width:1.40233;stroke-opacity:1;paint-order:fill markers stroke"
     id="path7"
     sodipodi:type="arc"
     sodipodi:cx="49.143501"
     sodipodi:cy="49.143501"
     sodipodi:rx="48.442245"
     sodipodi:ry="48.442379"
     sodipodi:start="2.443461"
     sodipodi:end="2.7925268"
     sodipodi:arc-type="slice"
     d="M 12.034587,80.281661 A 48.442245,48.442379 0 0 1 3.6226807,65.711771 L 49.143501,49.143501 Z"
     mask="url(#mask-powermask-path-effect17)"
     inkscape:path-effect="#path-effect17" />
  <path
     style="fill:#c62487;fill-opacity:1;stroke:#201e1d;stroke-width:1.40233;stroke-opacity:1;paint-order:fill markers stroke"
     id="path7-1"
     sodipodi:type="arc"
     sodipodi:cx="49.143501"
     sodipodi:cy="49.143501"
     sodipodi:rx="48.442245"
     sodipodi:ry="48.442379"
     sodipodi:start="0.34906585"
     sodipodi:end="0.6981317"
     sodipodi:arc-type="slice"
     d="M 94.664322,65.711771 A 48.442245,48.442379 0 0 1 86.252414,80.281662 L 49.143501,49.143501 Z"
     mask="url(#mask-powermask-path-effect16)"
     inkscape:path-effect="#path-effect16" />
  <path
     style="fill:#c62487;fill-opacity:1;stroke:#201e1d;stroke-width:1.40233;stroke-opacity:1;paint-order:fill markers stroke"
     id="path7-5"
     sodipodi:type="arc"
     sodipodi:cx="49.143501"
     sodipodi:cy="49.143501"
     sodipodi:rx="48.442245"
     sodipodi:ry="48.442379"
     sodipodi:start="4.5378561"
     sodipodi:end="4.8869219"
     sodipodi:arc-type="slice"
     d="m 40.731596,1.4370705 a 48.442245,48.442379 0 0 1 16.823813,3e-7 L 49.143501,49.143501 Z"
     mask="url(#mask-powermask-path-effect15)"
     inkscape:path-effect="#path-effect15" />
  <path
     style="fill:#c62487;fill-opacity:0;stroke:#201e1d;stroke-width:1.40233;stroke-opacity:1;paint-order:fill markers stroke"
     id="path8"
     sodipodi:type="arc"
     sodipodi:cx="49.143501"
     sodipodi:cy="49.143501"
     sodipodi:rx="26.459028"
     sodipodi:ry="26.459028"
     sodipodi:start="2.417281"
     sodipodi:end="2.8187067"
     sodipodi:arc-type="arc"
     d="m 29.326861,66.675784 a 26.459028,26.459028 0 0 1 -5.275082,-9.13671"
     sodipodi:open="true" />
  <path
     style="fill:#c62487;fill-opacity:0;stroke:#201e1d;stroke-width:1.40233;stroke-opacity:1;paint-order:fill markers stroke"
     id="path8-7"
     sodipodi:type="arc"
     sodipodi:cx="49.143501"
     sodipodi:cy="49.143501"
     sodipodi:rx="26.459028"
     sodipodi:ry="26.459028"
     sodipodi:start="0.32288591"
     sodipodi:end="0.72431164"
     sodipodi:arc-type="arc"
     d="m 74.235224,57.539074 a 26.459028,26.459028 0 0 1 -5.275082,9.13671"
     sodipodi:open="true" />
  <path
     style="fill:#c62487;fill-opacity:0;stroke:#201e1d;stroke-width:1.40233;stroke-opacity:1;paint-order:fill markers stroke"
     id="path8-4"
     sodipodi:type="arc"
     sodipodi:cx="49.143501"
     sodipodi:cy="49.143501"
     sodipodi:rx="26.459028"
     sodipodi:ry="26.459028"
     sodipodi:start="4.5116761"
     sodipodi:end="4.9131018"
     sodipodi:arc-type="arc"
     d="m 43.868419,23.215646 a 26.459028,26.459028 0 0 1 10.550164,0"
     sodipodi:open="true" />
  <path
     style="fill:#a6c6d7;fill-opacity:1;stroke:#201e1d;stroke-width:1.40233;stroke-opacity:1;paint-order:fill markers stroke"
     id="path9"
     sodipodi:type="arc"
     sodipodi:cx="49.143501"
     sodipodi:cy="49.143501"
     sodipodi:rx="48.442379"
     sodipodi:ry="48.442379"
     sodipodi:start="2.0943951"
     sodipodi:end="3.1415927"
     sodipodi:arc-type="slice"
     d="M 24.922312,91.095832 A 48.442379,48.442379 0 0 1 0.70112228,49.143501 H 49.143501 Z"
     mask="url(#mask-powermask-path-effect20)"
     inkscape:path-effect="#path-effect20" />
  <path
     style="fill:#a6c6d7;fill-opacity:1;stroke:#201e1d;stroke-width:1.40233;stroke-opacity:1;paint-order:fill markers stroke"
     id="path9-8"
     sodipodi:type="arc"
     sodipodi:cx="49.143501"
     sodipodi:cy="49.143501"
     sodipodi:rx="48.442379"
     sodipodi:ry="48.442379"
     sodipodi:start="0"
     sodipodi:end="1.0471976"
     sodipodi:arc-type="slice"
     d="M 97.58588,49.143501 A 48.442379,48.442379 0 0 1 73.364689,91.095833 L 49.143501,49.143501 Z"
     mask="url(#mask-powermask-path-effect19)"
     inkscape:path-effect="#path-effect19" />
  <path
     style="fill:#a6c6d7;fill-opacity:1;stroke:#201e1d;stroke-width:1.40233;stroke-opacity:1;paint-order:fill markers stroke"
     id="path9-5"
     sodipodi:type="arc"
     sodipodi:cx="49.143501"
     sodipodi:cy="49.143501"
     sodipodi:rx="48.442379"
     sodipodi:ry="48.442379"
     sodipodi:start="4.1887902"
     sodipodi:end="5.2359878"
     sodipodi:arc-type="slice"
     d="m 24.922312,7.1911706 a 48.442379,48.442379 0 0 1 48.442381,9e-7 L 49.143501,49.143501 Z"
     mask="url(#mask-powermask-path-effect18)"
     inkscape:path-effect="#path-effect18" />
  <path
     style="fill:none;fill-opacity:1;stroke:#201e1d;stroke-width:1.40233;stroke-opacity:1;paint-order:fill markers stroke"
     id="path10"
     sodipodi:type="arc"
     sodipodi:cx="49.143501"
     sodipodi:cy="49.143501"
     sodipodi:rx="37.042641"
     sodipodi:ry="37.042641"
     sodipodi:start="2.0769418"
     sodipodi:end="3.1590459"
     sodipodi:arc-type="arc"
     d="M 31.184873,81.541725 A 37.042641,37.042641 0 0 1 12.106502,48.497018"
     sodipodi:open="true" />
  <path
     style="fill:none;fill-opacity:1;stroke:#201e1d;stroke-width:1.40233;stroke-opacity:1;paint-order:fill markers stroke"
     id="path10-2"
     sodipodi:type="arc"
     sodipodi:cx="49.143501"
     sodipodi:cy="49.143501"
     sodipodi:rx="37.042641"
     sodipodi:ry="37.042641"
     sodipodi:start="6.265732"
     sodipodi:end="1.0646508"
     sodipodi:arc-type="arc"
     d="M 86.1805,48.497018 A 37.042641,37.042641 0 0 1 67.10213,81.541725"
     sodipodi:open="true" />
  <path
     style="fill:none;fill-opacity:1;stroke:#201e1d;stroke-width:1.40233;stroke-opacity:1;paint-order:fill markers stroke"
     id="path10-8"
     sodipodi:type="arc"
     sodipodi:cx="49.143501"
     sodipodi:cy="49.143501"
     sodipodi:rx="37.042641"
     sodipodi:ry="37.042641"
     sodipodi:start="4.1713369"
     sodipodi:end="5.253441"
     sodipodi:arc-type="arc"
     d="m 30.065131,17.391761 a 37.042641,37.042641 0 0 1 38.156741,0"
     sodipodi:open="true" />
</svg>
